<svg xmlns="http://www.w3.org/2000/svg" version="1.1" xmlns:xlink="http://www.w3.org/1999/xlink" xmlns:svgjs="http://svgjs.com/svgjs" width="1006.000000pt" height="1280.000000pt"><svg version="1.0" xmlns="http://www.w3.org/2000/svg" width="1006.000000pt" height="1280.000000pt" viewBox="0 0 1006.000000 1280.000000" preserveAspectRatio="xMidYMid meet">
<metadata>

</metadata>
<g transform="translate(0.000000,1280.000000) scale(0.100000,-0.100000)" fill="#000000" stroke="none">
<path d="M0 6400 l0 -6400 110 0 c69 0 243 17 472 45 542 67 1167 143 1998
245 410 50 755 93 768 95 l22 5 -2 2404 c-2 1322 -1 2403 2 2401 3 -2 756
-1171 1675 -2599 l1670 -2596 72 0 c64 0 112 12 405 104 183 57 495 154 693
216 198 61 473 147 610 190 138 43 405 127 595 185 190 59 485 151 655 204
l310 97 3 108 3 107 -1557 2207 c-857 1214 -1571 2224 -1587 2245 -16 21 -28
39 -26 41 2 1 44 26 92 55 462 277 916 752 1217 1275 460 799 596 1617 434
2609 -156 962 -625 1724 -1399 2276 -611 436 -1432 721 -2382 827 -441 49
-370 47 -2680 51 l-2173 4 0 -6401z m3865 3399 c472 -55 925 -325 1146 -683
128 -209 189 -468 176 -751 -21 -437 -171 -793 -465 -1106 -241 -256 -532
-403 -867 -439 -101 -10 -126 -9 -299 14 -103 14 -189 26 -190 26 0 0 0 660 1
1467 l3 1468 122 11 c134 11 233 9 373 -7z"></path>
</g>
</svg><style>@media (prefers-color-scheme: light) { :root { filter: none; } }
@media (prefers-color-scheme: dark) { :root { filter: invert(100%); } }
</style></svg>